<svg xmlns="http://www.w3.org/2000/svg" fill="none" viewBox="-0.5 -0.5 14 14" height="14" width="14"><g id="call-center-support-service"><path id="Intersect" fill="#fdba74" d="M3.5025714285714287 4.020714285714286c-0.65 -0.5636428571428571 -1.6036428571428574 -0.4642857142857143 -2.1125 0.22935714285714287 -0.08171428571428571 0.11142857142857143 -0.18107142857142858 0.24235714285714288 -0.31292857142857144 0.40764285714285714a2.678928571428571 2.678928571428571 0 0 0 0.0037142857142857147 3.3345000000000002 26.009285714285717 26.009285714285717 0 0 0 3.9557142857142855 3.9557142857142855 2.679857142857143 2.679857142857143 0 0 0 3.3335714285714286 0.0037142857142857147c0.1847857142857143 -0.14764285714285716 0.3259285714285714 -0.2535 0.44571428571428573 -0.33985714285714286a1.379857142857143 1.379857142857143 0 0 0 0.24142857142857144 -2.0391428571428576c-0.2637142857142857 -0.30642857142857144 -0.5432142857142856 -0.6017142857142858 -0.8190000000000001 -0.8914285714285715 -0.3565714285714286 -0.3760714285714286 -0.9684999999999999 -0.41785714285714287 -1.3612857142857142 -0.07800000000000001 -0.07242857142857143 0.06221428571428572 -0.16528571428571429 0.1467142857142857 -0.29714285714285715 0.2702142857142857 -1.1077857142857144 -0.6574285714285714 -1.7791428571428571 -1.3371428571428572 -2.4254285714285717 -2.4235714285714285 0.1262857142857143 -0.13557142857142856 0.21171428571428572 -0.2302857142857143 0.2739285714285714 -0.3027142857142857a0.9907857142857143 0.9907857142857143 0 0 0 -0.07985714285714285 -1.3557142857142856 31.766428571428573 31.766428571428573 0 0 0 -0.8459285714285715 -0.7707142857142857Z" stroke-width="1"></path><g id="Group 15"><path id="Vector 7" stroke="#f97316" stroke-linecap="round" stroke-linejoin="round" d="M12.503214285714286 2.9454285714285717h-2.551714285714286a0.19964285714285715 0.19964285714285715 0 0 1 -0.19964285714285715 -0.20057142857142857v0a0.2042857142857143 0.2042857142857143 0 0 1 0.04921428571428572 -0.13185714285714284l1.82 -2.08a0.18942857142857142 0.18942857142857142 0 0 1 0.14300000000000002 -0.065v0c0.10400000000000001 0 0.18942857142857142 0.08542857142857142 0.18942857142857142 0.18942857142857142v3.1135" stroke-width="1"></path></g><path id="Vector 3" stroke="#f97316" stroke-linecap="round" stroke-linejoin="round" d="M8.218785714285715 3.7699999999999996h-2.200714285714286v-0.4689285714285715a0.8264285714285715 0.8264285714285715 0 0 1 0.49400000000000005 -0.7558571428571428l1.2257142857142858 -0.5357857142857143a0.8041428571428572 0.8041428571428572 0 0 0 -0.3231428571428571 -1.5414285714285714H6.843571428571429a0.8264285714285715 0.8264285714285715 0 0 0 -0.7781428571428571 0.5506428571428571" stroke-width="1"></path><path id="Intersect_2" stroke="#f97316" stroke-linecap="round" stroke-linejoin="round" d="M3.5025714285714287 4.020714285714286c-0.65 -0.5636428571428571 -1.6036428571428574 -0.4642857142857143 -2.1125 0.22935714285714287 -0.08171428571428571 0.11142857142857143 -0.18107142857142858 0.24235714285714288 -0.31292857142857144 0.40764285714285714a2.678928571428571 2.678928571428571 0 0 0 0.0037142857142857147 3.3345000000000002 26.009285714285717 26.009285714285717 0 0 0 3.9557142857142855 3.9557142857142855 2.679857142857143 2.679857142857143 0 0 0 3.3335714285714286 0.0037142857142857147c0.1847857142857143 -0.14764285714285716 0.3259285714285714 -0.2535 0.44571428571428573 -0.33985714285714286a1.379857142857143 1.379857142857143 0 0 0 0.24142857142857144 -2.0391428571428576c-0.2637142857142857 -0.30642857142857144 -0.5432142857142856 -0.6017142857142858 -0.8190000000000001 -0.8914285714285715 -0.3565714285714286 -0.3760714285714286 -0.9684999999999999 -0.41785714285714287 -1.3612857142857142 -0.07800000000000001 -0.07242857142857143 0.06221428571428572 -0.16528571428571429 0.1467142857142857 -0.29714285714285715 0.2702142857142857 -1.1077857142857144 -0.6574285714285714 -1.7791428571428571 -1.3371428571428572 -2.4254285714285717 -2.4235714285714285 0.1262857142857143 -0.13557142857142856 0.21171428571428572 -0.2302857142857143 0.2739285714285714 -0.3027142857142857a0.9907857142857143 0.9907857142857143 0 0 0 -0.07985714285714285 -1.3557142857142856 31.766428571428573 31.766428571428573 0 0 0 -0.8459285714285715 -0.7707142857142857Z" stroke-width="1"></path></g></svg>