<svg xmlns="http://www.w3.org/2000/svg" fill="none" viewBox="-0.5 -0.5 14 14" height="14" width="14"><g id="camera-1--photos-picture-camera-photography-photo-pictures"><path id="Subtract" fill="#fdba74" d="M8.640357142857143 1.2962857142857143h-4.280714285714287L3.2964285714285713 3.221214285714286l-0.6267857142857144 0.05385714285714286A1.9435 1.9435 0 0 0 0.9202142857142858 4.917714285714286C0.8022857142857143 5.716285714285714 0.6964285714285714 6.539 0.6964285714285714 7.379357142857143c0 0.8403571428571429 0.10585714285714286 1.6630714285714285 0.22378571428571428 2.4625714285714286 0.13 0.8821428571428571 0.8617142857142858 1.5655714285714286 1.7494285714285713 1.642642857142857 1.2740000000000002 0.10957142857142857 2.5507857142857144 0.21914285714285714 3.830357142857143 0.21914285714285714 1.2795714285714286 0 2.556357142857143 -0.10957142857142857 3.830357142857143 -0.21914285714285714a1.9435 1.9435 0 0 0 1.7494285714285713 -1.6435714285714287c0.11792857142857144 -0.7985714285714286 0.22378571428571428 -1.6212857142857144 0.22378571428571428 -2.460714285714286 0 -0.8412857142857143 -0.10585714285714286 -1.6640000000000001 -0.22378571428571428 -2.4625714285714286a1.9435 1.9435 0 0 0 -1.7494285714285713 -1.6435714285714287l-0.6267857142857144 -0.05292857142857143 -1.0632142857142857 -1.9249285714285715Z" stroke-width="1"></path><path id="Union" stroke="#f97316" stroke-linecap="round" stroke-linejoin="round" d="M8.640357142857143 1.2962857142857143h-4.280714285714287L3.2964285714285713 3.221214285714286l-0.6267857142857144 0.05385714285714286A1.9435 1.9435 0 0 0 0.9202142857142858 4.917714285714286C0.8022857142857143 5.716285714285714 0.6964285714285714 6.539 0.6964285714285714 7.379357142857143c0 0.8403571428571429 0.10585714285714286 1.6630714285714285 0.22378571428571428 2.4625714285714286 0.13 0.8821428571428571 0.8617142857142858 1.5655714285714286 1.7494285714285713 1.642642857142857 1.2740000000000002 0.10957142857142857 2.5507857142857144 0.21914285714285714 3.830357142857143 0.21914285714285714 1.2795714285714286 0 2.556357142857143 -0.10957142857142857 3.830357142857143 -0.21914285714285714a1.9435 1.9435 0 0 0 1.7494285714285713 -1.6435714285714287c0.11792857142857144 -0.7985714285714286 0.22378571428571428 -1.6212857142857144 0.22378571428571428 -2.460714285714286 0 -0.8412857142857143 -0.10585714285714286 -1.6640000000000001 -0.22378571428571428 -2.4625714285714286a1.9435 1.9435 0 0 0 -1.7494285714285713 -1.6435714285714287l-0.6267857142857144 -0.05292857142857143 -1.0632142857142857 -1.9249285714285715Z" stroke-width="1"></path><path id="Vector" fill="#ffffff" d="M6.5 9.194714285714285c1.3371428571428572 0 2.0892857142857144 -0.7521428571428572 2.0892857142857144 -2.0892857142857144S7.837142857142857 5.0161428571428575 6.5 5.0161428571428575s-2.0892857142857144 0.7521428571428572 -2.0892857142857144 2.0892857142857144 0.7521428571428572 2.0892857142857144 2.0892857142857144 2.0892857142857144Z" stroke-width="1"></path><path id="Vector_2" stroke="#f97316" stroke-linecap="round" stroke-linejoin="round" d="M6.5 9.194714285714285c1.3371428571428572 0 2.0892857142857144 -0.7521428571428572 2.0892857142857144 -2.0892857142857144S7.837142857142857 5.0161428571428575 6.5 5.0161428571428575s-2.0892857142857144 0.7521428571428572 -2.0892857142857144 2.0892857142857144 0.7521428571428572 2.0892857142857144 2.0892857142857144 2.0892857142857144Z" stroke-width="1"></path></g></svg>