<svg xmlns="http://www.w3.org/2000/svg" fill="none" viewBox="-0.5 -0.5 14 14" height="14" width="14"><g id="flip-horizontal-arrow-1--arrow-design-flip-reflect"><path id="Vector 121" fill="#fdba74" d="m1.6965000000000001 3.688285714285714 2.595357142857143 2.0883571428571432a0.9285714285714286 0.9285714285714286 0 0 1 0 1.4467142857142858l-2.595357142857143 2.0883571428571432c-0.3296428571428571 0.2646428571428571 -0.7085 0.2720714285714286 -0.7985714285714286 -0.14114285714285715 -0.26835714285714285 -1.2173571428571428 -0.26835714285714285 -4.122857142857144 0 -5.341142857142857 0.09007142857142858 -0.41321428571428576 0.4689285714285715 -0.40671428571428575 0.7985714285714286 -0.14114285714285715Z" stroke-width="1"></path><path id="Vector 161" fill="#fdba74" d="M11.274714285714285 3.688285714285714 8.679357142857143 5.776642857142858a0.9285714285714286 0.9285714285714286 0 0 0 0 1.4467142857142858l2.595357142857143 2.0883571428571432c0.3296428571428571 0.2646428571428571 0.7085 0.2720714285714286 0.7985714285714286 -0.14114285714285715 0.26835714285714285 -1.2173571428571428 0.26835714285714285 -4.122857142857144 0 -5.341142857142857 -0.09007142857142858 -0.41321428571428576 -0.4689285714285715 -0.40671428571428575 -0.7985714285714286 -0.14114285714285715Z" stroke-width="1"></path><path id="Vector 157" stroke="#f97316" stroke-linecap="round" stroke-linejoin="round" d="m6.471214285714286 0.7252142857142858 0 0.9285714285714286" stroke-width="1"></path><path id="Vector 158" stroke="#f97316" stroke-linecap="round" stroke-linejoin="round" d="m6.471214285714286 4.275142857142858 0 0.9285714285714286" stroke-width="1"></path><path id="Vector 162" stroke="#f97316" stroke-linecap="round" stroke-linejoin="round" d="m1.6965000000000001 3.688285714285714 2.595357142857143 2.0883571428571432a0.9285714285714286 0.9285714285714286 0 0 1 0 1.4467142857142858l-2.595357142857143 2.0883571428571432c-0.3296428571428571 0.2646428571428571 -0.7085 0.2720714285714286 -0.7985714285714286 -0.14114285714285715 -0.26835714285714285 -1.2173571428571428 -0.26835714285714285 -4.122857142857144 0 -5.341142857142857 0.09007142857142858 -0.41321428571428576 0.4689285714285715 -0.40671428571428575 0.7985714285714286 -0.14114285714285715Z" stroke-width="1"></path><path id="Vector 163" stroke="#f97316" stroke-linecap="round" stroke-linejoin="round" d="M11.274714285714285 3.688285714285714 8.679357142857143 5.776642857142858a0.9285714285714286 0.9285714285714286 0 0 0 0 1.4467142857142858l2.595357142857143 2.0883571428571432c0.3296428571428571 0.2646428571428571 0.7085 0.2720714285714286 0.7985714285714286 -0.14114285714285715 0.26835714285714285 -1.2173571428571428 0.26835714285714285 -4.122857142857144 0 -5.341142857142857 -0.09007142857142858 -0.41321428571428576 -0.4689285714285715 -0.40671428571428575 -0.7985714285714286 -0.14114285714285715Z" stroke-width="1"></path><path id="Vector 159" stroke="#f97316" stroke-linecap="round" stroke-linejoin="round" d="m6.471214285714286 7.8250714285714285 0 0.9285714285714286" stroke-width="1"></path><path id="Vector 160" stroke="#f97316" stroke-linecap="round" stroke-linejoin="round" d="m6.471214285714286 11.375 0 0.9285714285714286" stroke-width="1"></path></g></svg>