<svg xmlns="http://www.w3.org/2000/svg" fill="none" viewBox="-0.5 -0.5 14 14" height="14" width="14"><g id="landscape-1--photos-photo-landscape-picture-photography-camera-pictures-image"><path id="Intersect" fill="#fdba74" d="M0.8914285714285715 9.534571428571429a2.9082857142857144 2.9082857142857144 0 0 0 2.556357142857143 2.5628571428571427c0.9935714285714287 0.11142857142857143 2.0122142857142857 0.20614285714285716 3.0522142857142858 0.20614285714285716s2.0595714285714286 -0.09471428571428571 3.0522142857142858 -0.20614285714285716a2.9082857142857144 2.9082857142857144 0 0 0 2.556357142857143 -2.5628571428571427c0.10585714285714286 -0.9870714285714286 0.195 -2.0010714285714286 0.195 -3.0345714285714287s-0.08914285714285715 -2.0475000000000003 -0.195 -3.0355000000000003a2.9082857142857144 2.9082857142857144 0 0 0 -2.556357142857143 -2.5628571428571427C8.558642857142859 0.7920714285714285 7.539999999999999 0.6964285714285714 6.5 0.6964285714285714S4.440428571428572 0.7911428571428571 3.4477857142857147 0.9025714285714286A2.9082857142857144 2.9082857142857144 0 0 0 0.8914285714285715 3.4654285714285717C0.7855714285714286 4.4515714285714285 0.6964285714285714 5.465571428571429 0.6964285714285714 6.5s0.08914285714285715 2.0475000000000003 0.195 3.0345714285714287Z" stroke-width="1"></path><path id="Intersect_2" fill="#ffffff" d="M0.6964285714285714 9.831714285714286v-0.1290714285714286c0.8440714285714286 -1.0864285714285713 1.4782857142857144 -1.703 2.5331428571428574 -2.4375 0.5450714285714285 -0.3797857142857143 1.2665714285714287 -0.4122857142857143 1.815357142857143 -0.03900000000000001 1.82 1.2387142857142859 3.3484285714285713 3.1422857142857143 4.324357142857143 4.979928571428572v0.1782857142857143c-0.9824285714285715 0.08821428571428572 -1.990857142857143 0.1625 -3.017857142857143 0.1625 -1.8525000000000003 0 -5.383857142857143 -0.442 -5.655 -2.7151428571428573Z" stroke-width="1"></path><path id="Intersect_3" stroke="#f97316" stroke-linecap="round" stroke-linejoin="round" d="M0.8737857142857143 9.477c0.7595714285714286 -0.9490000000000001 1.3761428571428571 -1.5302857142857142 2.355785714285714 -2.211857142857143 0.546 -0.3797857142857143 1.2665714285714287 -0.4122857142857143 1.815357142857143 -0.03900000000000001 1.7893571428571429 1.2182857142857144 3.2964285714285713 3.079142857142857 4.274214285714286 4.887071428571429" stroke-width="1"></path><path id="Intersect_4" stroke="#f97316" stroke-linecap="round" stroke-linejoin="round" d="M0.8914285714285715 9.534571428571429a2.9082857142857144 2.9082857142857144 0 0 0 2.556357142857143 2.5628571428571427c0.9935714285714287 0.11142857142857143 2.0122142857142857 0.20614285714285716 3.0522142857142858 0.20614285714285716s2.0595714285714286 -0.09471428571428571 3.0522142857142858 -0.20614285714285716a2.9082857142857144 2.9082857142857144 0 0 0 2.556357142857143 -2.5628571428571427c0.10585714285714286 -0.9870714285714286 0.195 -2.0010714285714286 0.195 -3.0345714285714287s-0.08914285714285715 -2.0475000000000003 -0.195 -3.0355000000000003a2.9082857142857144 2.9082857142857144 0 0 0 -2.556357142857143 -2.5628571428571427C8.558642857142859 0.7920714285714285 7.539999999999999 0.6964285714285714 6.5 0.6964285714285714S4.440428571428572 0.7911428571428571 3.4477857142857147 0.9025714285714286A2.9082857142857144 2.9082857142857144 0 0 0 0.8914285714285715 3.4654285714285717C0.7855714285714286 4.4515714285714285 0.6964285714285714 5.465571428571429 0.6964285714285714 6.5s0.08914285714285715 2.0475000000000003 0.195 3.0345714285714287Z" stroke-width="1"></path><path id="Vector" fill="#ffffff" d="M8.357142857142858 6.267857142857143c1.04 0 1.625 -0.5850000000000001 1.625 -1.625S9.397142857142857 3.017857142857143 8.357142857142858 3.017857142857143 6.732142857142858 3.6028571428571428 6.732142857142858 4.642857142857143 7.317142857142858 6.267857142857143 8.357142857142858 6.267857142857143Z" stroke-width="1"></path><path id="Vector_2" stroke="#f97316" stroke-linecap="round" stroke-linejoin="round" d="M8.357142857142858 6.267857142857143c1.04 0 1.625 -0.5850000000000001 1.625 -1.625S9.397142857142857 3.017857142857143 8.357142857142858 3.017857142857143 6.732142857142858 3.6028571428571428 6.732142857142858 4.642857142857143 7.317142857142858 6.267857142857143 8.357142857142858 6.267857142857143Z" stroke-width="1"></path></g></svg>