<svg xmlns="http://www.w3.org/2000/svg" fill="none" viewBox="-0.5 -0.5 14 14" height="14" width="14"><g id="layers-1--design-layer-layers-pile-stack-align"><path id="Intersect" fill="#fdba74" d="M1.1449285714285715 2.8665000000000003c-0.5980000000000001 0.35842857142857143 -0.5970714285714286 0.8747142857142857 -0.002785714285714286 1.235 0.5850000000000001 0.35285714285714287 1.1960000000000002 0.7150000000000001 1.8924285714285713 1.0492857142857142 0.6964285714285714 0.3342857142857143 1.4504285714285716 0.6267857142857144 2.1877142857142857 0.9072142857142858 0.7493571428571429 0.28600000000000003 1.8265000000000002 0.28600000000000003 2.5730714285714287 -0.0009285714285714287 0.7307857142857144 -0.28135714285714286 1.4764285714285716 -0.5738571428571428 2.1700714285714287 -0.9062857142857143a22.805714285714284 22.805714285714284 0 0 0 1.8896428571428574 -1.0409285714285714c0.5980000000000001 -0.35842857142857143 0.5980000000000001 -0.8756428571428572 0.002785714285714286 -1.235a22.202142857142857 22.202142857142857 0 0 0 -1.8924285714285713 -1.0492857142857142c-0.6964285714285714 -0.3342857142857143 -1.4504285714285716 -0.6267857142857144 -2.1877142857142857 -0.9081428571428571C7.028357142857143 0.632357142857143 5.951214285714285 0.632357142857143 5.204642857142858 0.9192857142857143c-0.7307857142857144 0.2804285714285714 -1.4764285714285716 0.5738571428571428 -2.1700714285714287 0.9062857142857143 -0.6927142857142857 0.3324285714285714 -1.3046428571428572 0.6899285714285714 -1.8896428571428574 1.04Z" stroke-width="1"></path><path id="Intersect_2" stroke="#f97316" stroke-linecap="round" stroke-linejoin="round" d="M1.1449285714285715 2.8665000000000003c-0.5980000000000001 0.35842857142857143 -0.5970714285714286 0.8747142857142857 -0.002785714285714286 1.235 0.5850000000000001 0.35285714285714287 1.1960000000000002 0.7150000000000001 1.8924285714285713 1.0492857142857142 0.6964285714285714 0.3342857142857143 1.4504285714285716 0.6267857142857144 2.1877142857142857 0.9072142857142858 0.7493571428571429 0.28600000000000003 1.8265000000000002 0.28600000000000003 2.5730714285714287 -0.0009285714285714287 0.7307857142857144 -0.28135714285714286 1.4764285714285716 -0.5738571428571428 2.1700714285714287 -0.9062857142857143a22.805714285714284 22.805714285714284 0 0 0 1.8896428571428574 -1.0409285714285714c0.5980000000000001 -0.35842857142857143 0.5980000000000001 -0.8756428571428572 0.002785714285714286 -1.235a22.202142857142857 22.202142857142857 0 0 0 -1.8924285714285713 -1.0492857142857142c-0.6964285714285714 -0.3342857142857143 -1.4504285714285716 -0.6267857142857144 -2.1877142857142857 -0.9081428571428571C7.028357142857143 0.632357142857143 5.951214285714285 0.632357142857143 5.204642857142858 0.9192857142857143c-0.7307857142857144 0.2804285714285714 -1.4764285714285716 0.5738571428571428 -2.1700714285714287 0.9062857142857143 -0.6927142857142857 0.3324285714285714 -1.3046428571428572 0.6899285714285714 -1.8896428571428574 1.04Z" stroke-width="1"></path><path id="Intersect_3" stroke="#f97316" stroke-linecap="round" stroke-linejoin="round" d="M12.303571428571429 7.238214285714286a25.415000000000003 25.415000000000003 0 0 1 -2.0475000000000003 1.04c-0.7521428571428572 0.33335714285714285 -1.56 0.6267857142857144 -2.3520714285714286 0.9072142857142858 -0.8087857142857143 0.2869285714285714 -1.9760000000000002 0.2869285714285714 -2.7885000000000004 0.0009285714285714287 -0.7985714285714286 -0.2804285714285714 -1.6157142857142857 -0.5729285714285715 -2.3706428571428573 -0.9072142857142858S1.3278571428571428 7.582714285714286 0.6936428571428571 7.229857142857143" stroke-width="1"></path><path id="Intersect_4" stroke="#f97316" stroke-linecap="round" stroke-linejoin="round" d="M12.303571428571429 10.14c-0.6342142857142857 0.3500714285714286 -1.2962857142857143 0.7075714285714286 -2.0475000000000003 1.04 -0.7521428571428572 0.33335714285714285 -1.56 0.6267857142857144 -2.3520714285714286 0.9072142857142858 -0.8087857142857143 0.2869285714285714 -1.9760000000000002 0.2869285714285714 -2.7885000000000004 0.0018571428571428573 -0.7985714285714286 -0.28135714285714286 -1.6157142857142857 -0.5738571428571428 -2.3706428571428573 -0.9081428571428571S1.3278571428571428 10.483571428571429 0.6936428571428571 10.130714285714285" stroke-width="1"></path></g></svg>