<svg xmlns="http://www.w3.org/2000/svg" fill="none" viewBox="-0.5 -0.5 14 14" height="14" width="14"><g id="mail-send-envelope--envelope-email-message-unopened-sealed-close"><path id="Intersect" fill="#fdba74" d="M0.9582857142857143 9.784357142857145a1.9425714285714286 1.9425714285714286 0 0 0 1.7197142857142858 1.6844285714285716c1.2340714285714285 0.13 2.5117857142857143 0.26557142857142857 3.8219999999999996 0.26557142857142857 1.3092857142857142 0 2.5879285714285714 -0.1365 3.8219999999999996 -0.26557142857142857a1.9407142857142856 1.9407142857142856 0 0 0 1.7197142857142858 -1.6844285714285716c0.13185714285714284 -1.0622857142857143 0.26185714285714284 -2.159857142857143 0.26185714285714284 -3.284357142857143 0 -1.1235714285714287 -0.13 -2.2220714285714283 -0.26185714285714284 -3.284357142857143a1.9425714285714286 1.9425714285714286 0 0 0 -1.7197142857142858 -1.6853571428571428C9.087928571428572 1.4021428571428571 7.809285714285715 1.2665714285714287 6.5 1.2665714285714287c-1.3092857142857142 0 -2.5879285714285714 0.1365 -3.8219999999999996 0.26557142857142857a1.9407142857142856 1.9407142857142856 0 0 0 -1.7197142857142858 1.6844285714285716C0.8264285714285715 4.277928571428572 0.6964285714285714 5.376428571428572 0.6964285714285714 6.5s0.13 2.2220714285714283 0.26185714285714284 3.284357142857143Z" stroke-width="1"></path><path id="Intersect_2" stroke="#f97316" stroke-linecap="round" stroke-linejoin="round" d="M0.9582857142857143 9.784357142857145a1.9425714285714286 1.9425714285714286 0 0 0 1.7197142857142858 1.6844285714285716c1.2340714285714285 0.13 2.5117857142857143 0.26557142857142857 3.8219999999999996 0.26557142857142857 1.3092857142857142 0 2.5879285714285714 -0.1365 3.8219999999999996 -0.26557142857142857a1.9407142857142856 1.9407142857142856 0 0 0 1.7197142857142858 -1.6844285714285716c0.13185714285714284 -1.0622857142857143 0.26185714285714284 -2.159857142857143 0.26185714285714284 -3.284357142857143 0 -1.1235714285714287 -0.13 -2.2220714285714283 -0.26185714285714284 -3.284357142857143a1.9425714285714286 1.9425714285714286 0 0 0 -1.7197142857142858 -1.6853571428571428C9.087928571428572 1.4021428571428571 7.809285714285715 1.2665714285714287 6.5 1.2665714285714287c-1.3092857142857142 0 -2.5879285714285714 0.1365 -3.8219999999999996 0.26557142857142857a1.9407142857142856 1.9407142857142856 0 0 0 -1.7197142857142858 1.6844285714285716C0.8264285714285715 4.277928571428572 0.6964285714285714 5.376428571428572 0.6964285714285714 6.5s0.13 2.2220714285714283 0.26185714285714284 3.284357142857143Z" stroke-width="1"></path><path id="Vector 15" stroke="#f97316" stroke-linecap="round" stroke-linejoin="round" d="m0.9842857142857143 2.9751428571428575 4.366142857142857 3.4431428571428575a1.8571428571428572 1.8571428571428572 0 0 0 2.2991428571428574 0l4.366142857142857 -3.4431428571428575" stroke-width="1"></path></g></svg>