<svg xmlns="http://www.w3.org/2000/svg" fill="none" viewBox="-0.5 -0.5 14 14" height="14" width="14"><g id="phone-ringing-1--android-phone-mobile-device-smartphone-iphone-ringing-incoming-call"><path id="Intersect" fill="#fdba74" d="M9.152928571428571 3.9557142857142855a1.4235 1.4235 0 0 1 2.1097142857142854 0.22842857142857143c0.07707142857142858 0.10400000000000001 0.169 0.22471428571428573 0.28785714285714287 0.3742142857142858a2.6222857142857143 2.6222857142857143 0 0 1 -0.0037142857142857147 3.264857142857143c-0.5627142857142857 0.6964285714285714 -1.1514285714285715 1.4012142857142857 -1.8107142857142857 2.0595714285714286 -0.6592857142857143 0.6592857142857143 -1.3631428571428572 1.2489285714285714 -2.061428571428572 1.8116428571428573a2.623214285714286 2.623214285714286 0 0 1 -3.2639285714285715 0.004642857142857143c-0.16714285714285715 -0.13464285714285715 -0.29992857142857143 -0.234 -0.41135714285714287 -0.3157142857142857 -0.6704285714285714 -0.4893571428571429 -0.7846428571428572 -1.4077142857142857 -0.24142857142857144 -2.036357142857143 0.24792857142857144 -0.28600000000000003 0.5107142857142858 -0.5627142857142857 0.7688571428571428 -0.8357142857142857 0.3565714285714286 -0.37514285714285717 0.9694285714285715 -0.41785714285714287 1.3612857142857142 -0.07707142857142858 0.06871428571428571 0.059428571428571435 0.15600000000000003 0.1392857142857143 0.2767142857142857 0.25164285714285717 1.0836428571428571 -0.6444285714285714 1.7410714285714286 -1.3092857142857142 2.3734285714285717 -2.3734285714285717a11.031428571428572 11.031428571428572 0 0 1 -0.2553571428571429 -0.2804285714285714 0.989857142857143 0.989857142857143 0 0 1 0.07985714285714285 -1.3557142857142856c0.26 -0.24235714285714288 0.5218571428571429 -0.4865714285714286 0.7902142857142858 -0.7205714285714286Z" stroke-width="1"></path><path id="Intersect_2" stroke="#f97316" stroke-linecap="round" stroke-linejoin="round" d="M9.152928571428571 3.9557142857142855a1.4235 1.4235 0 0 1 2.1097142857142854 0.22842857142857143c0.07707142857142858 0.10400000000000001 0.169 0.22471428571428573 0.28785714285714287 0.3742142857142858a2.6222857142857143 2.6222857142857143 0 0 1 -0.0037142857142857147 3.264857142857143c-0.5627142857142857 0.6964285714285714 -1.1514285714285715 1.4012142857142857 -1.8107142857142857 2.0595714285714286 -0.6592857142857143 0.6592857142857143 -1.3631428571428572 1.2489285714285714 -2.061428571428572 1.8116428571428573a2.623214285714286 2.623214285714286 0 0 1 -3.2639285714285715 0.004642857142857143c-0.16714285714285715 -0.13464285714285715 -0.29992857142857143 -0.234 -0.41135714285714287 -0.3157142857142857 -0.6704285714285714 -0.4893571428571429 -0.7846428571428572 -1.4077142857142857 -0.24142857142857144 -2.036357142857143 0.24792857142857144 -0.28600000000000003 0.5107142857142858 -0.5627142857142857 0.7688571428571428 -0.8357142857142857 0.3565714285714286 -0.37514285714285717 0.9694285714285715 -0.41785714285714287 1.3612857142857142 -0.07707142857142858 0.06871428571428571 0.059428571428571435 0.15600000000000003 0.1392857142857143 0.2767142857142857 0.25164285714285717 1.0836428571428571 -0.6444285714285714 1.7410714285714286 -1.3092857142857142 2.3734285714285717 -2.3734285714285717a11.031428571428572 11.031428571428572 0 0 1 -0.2553571428571429 -0.2804285714285714 0.989857142857143 0.989857142857143 0 0 1 0.07985714285714285 -1.3557142857142856c0.26 -0.24235714285714288 0.5218571428571429 -0.4865714285714286 0.7902142857142858 -0.7205714285714286Z" stroke-width="1"></path><path id="Ellipse 348" stroke="#f97316" stroke-linecap="round" stroke-linejoin="round" d="M3.630714285714286 5.855571428571428a2.3585714285714285 2.3585714285714285 0 0 1 0.8171428571428572 -1.3631428571428572 2.3585714285714285 2.3585714285714285 0 0 1 1.558142857142857 -0.5385714285714286" stroke-width="1"></path><path id="Ellipse 349" stroke="#f97316" stroke-linecap="round" stroke-linejoin="round" d="M0.7642142857142857 5.382000000000001a5.321642857142857 5.321642857142857 0 0 1 1.844142857142857 -3.075428571428571 5.3235 5.3235 0 0 1 3.5165 -1.2164285714285714" stroke-width="1"></path></g></svg>