<svg xmlns="http://www.w3.org/2000/svg" fill="none" viewBox="-0.5 -0.5 14 14" height="14" width="14"><g id="pictures-folder-memories"><path id="Subtract" fill="#fdba74" d="M5.900142857142858 1.6389285714285713a0.9202142857142858 0.9202142857142858 0 0 0 -0.8199285714285715 -0.6017142857142858 24.703714285714288 24.703714285714288 0 0 0 -3.209142857142857 0.03157142857142858 0.9322857142857143 0.9322857142857143 0 0 0 -0.8542857142857143 0.8292142857142858C0.7038571428571428 4.6242857142857146 0.5998571428571429 7.360785714285714 0.9257857142857143 10.093571428571428c0.11142857142857143 0.9267142857142857 0.871 1.600857142857143 1.7791428571428571 1.6992857142857145a35.01642857142858 35.01642857142858 0 0 0 7.657928571428571 -0.006500000000000001 1.9425714285714286 1.9425714285714286 0 0 0 1.7132142857142858 -1.6927857142857143c0.20242857142857143 -1.6900000000000002 0.2553571428571429 -3.4208571428571433 0.13 -5.543571428571428A1.7698571428571428 1.7698571428571428 0 0 0 10.585714285714287 2.887857142857143c-1.2480000000000002 -0.10214285714285715 -2.116214285714286 -0.10771428571428572 -3.6492857142857145 -0.1402142857142857a0.9267142857142857 0.9267142857142857 0 0 1 -0.8496428571428573 -0.6045l-0.18571428571428572 -0.5032857142857143Z" stroke-width="1"></path><path id="Intersect" fill="#ffffff" d="M8.824214285714286 11.921928571428571v-0.0325c-0.8979285714285714 -1.742 -2.2174285714285715 -3.500714285714286 -3.7699999999999996 -4.698571428571428 -0.5710714285714286 -0.4401428571428571 -1.3631428571428572 -0.40485714285714286 -1.9314285714285715 0.037142857142857144 -0.8682142857142858 0.6778571428571428 -1.4337142857142857 1.2749285714285714 -2.1292142857142857 2.2369285714285714l-0.11885714285714287 0.1625c0.01578571428571429 0.15507142857142858 0.033428571428571426 0.3110714285714286 0.052000000000000005 0.46614285714285714 0.1105 0.9267142857142857 0.8700714285714286 1.600857142857143 1.7782142857142857 1.6992857142857145 2.051214285714286 0.22378571428571428 4.078285714285715 0.2646428571428571 6.119285714285715 0.1290714285714286Z" stroke-width="1"></path><path id="Subtract_2" stroke="#f97316" stroke-linejoin="round" d="M5.900142857142858 1.6389285714285713a0.9202142857142858 0.9202142857142858 0 0 0 -0.8199285714285715 -0.6017142857142858 24.703714285714288 24.703714285714288 0 0 0 -3.209142857142857 0.03157142857142858 0.9322857142857143 0.9322857142857143 0 0 0 -0.8542857142857143 0.8292142857142858C0.7038571428571428 4.6242857142857146 0.5998571428571429 7.360785714285714 0.9257857142857143 10.093571428571428c0.11142857142857143 0.9267142857142857 0.871 1.600857142857143 1.7791428571428571 1.6992857142857145a35.01642857142858 35.01642857142858 0 0 0 7.657928571428571 -0.006500000000000001 1.9425714285714286 1.9425714285714286 0 0 0 1.7132142857142858 -1.6927857142857143c0.20242857142857143 -1.6900000000000002 0.2553571428571429 -3.4208571428571433 0.13 -5.543571428571428A1.7698571428571428 1.7698571428571428 0 0 0 10.585714285714287 2.887857142857143c-1.2480000000000002 -0.10214285714285715 -2.116214285714286 -0.10771428571428572 -3.6492857142857145 -0.1402142857142857a0.9267142857142857 0.9267142857142857 0 0 1 -0.8496428571428573 -0.6045l-0.18571428571428572 -0.5032857142857143Z" stroke-width="1"></path><path id="Intersect_2" stroke="#f97316" stroke-linecap="round" stroke-linejoin="round" d="M0.9935714285714287 9.46492857142857c0.6964285714285714 -0.9620000000000001 1.2610000000000001 -1.5590714285714287 2.1292142857142857 -2.236 0.5682857142857143 -0.44292857142857145 1.360357142857143 -0.47821428571428576 1.9305000000000003 -0.038071428571428576 1.5535 1.197857142857143 2.8729999999999998 2.956571428571429 3.7709285714285716 4.698571428571428" stroke-width="1"></path><path id="Vector" fill="#ffffff" d="M8.908714285714286 7.444357142857142c0.7707142857142857 0 1.2034285714285715 -0.43364285714285716 1.2034285714285715 -1.2034285714285715 0 -0.7707142857142857 -0.4327142857142858 -1.2034285714285715 -1.2034285714285715 -1.2034285714285715 -0.7707142857142857 0 -1.2034285714285715 0.4327142857142858 -1.2034285714285715 1.2034285714285715 0 0.7707142857142857 0.43364285714285716 1.2034285714285715 1.2034285714285715 1.2034285714285715Z" stroke-width="1"></path><path id="Vector_2" stroke="#f97316" stroke-linecap="round" stroke-linejoin="round" d="M8.908714285714286 7.444357142857142c0.7707142857142857 0 1.2034285714285715 -0.43364285714285716 1.2034285714285715 -1.2034285714285715 0 -0.7707142857142857 -0.4327142857142858 -1.2034285714285715 -1.2034285714285715 -1.2034285714285715 -0.7707142857142857 0 -1.2034285714285715 0.4327142857142858 -1.2034285714285715 1.2034285714285715 0 0.7707142857142857 0.43364285714285716 1.2034285714285715 1.2034285714285715 1.2034285714285715Z" stroke-width="1"></path></g></svg>