<svg xmlns="http://www.w3.org/2000/svg" fill="none" viewBox="-0.5 -0.5 14 14" height="14" width="14"><g id="rocket--science-space-universe-rocket-astronomy"><path id="Subtract" fill="#fdba74" fill-rule="evenodd" d="m8.415642857142858 10.610785714285715 -0.006500000000000001 0.0325c0.34450000000000003 0.1727142857142857 0.5534285714285714 0.41135714285714287 0.6778571428571428 0.6704285714285714 0.22285714285714286 0.4615 0.5924285714285714 0.9035 1.105 0.9035h0.221c0.41785714285714287 0 0.7920714285714285 -0.2785714285714286 0.8598571428571429 -0.6917857142857143 0.3844285714285714 -2.3455714285714286 -0.6221428571428572 -4.2519285714285715 -1.8162857142857143 -4.8035000000000005 -0.18942857142857142 1.522857142857143 -0.6657857142857143 2.9695714285714288 -1.04 3.888857142857143Z" clip-rule="evenodd" stroke-width="1"></path><path id="Subtract_2" fill="#fdba74" fill-rule="evenodd" d="M4.053214285714286 6.733071428571429c-1.1839285714285714 0.5655 -2.174714285714286 2.461642857142857 -1.792142857142857 4.792357142857143 0.06685714285714285 0.4122857142857143 0.44107142857142856 0.6917857142857143 0.8589285714285715 0.6917857142857143h0.221c0.5125714285714287 0 0.8821428571428571 -0.442 1.105 -0.9035a1.4300000000000002 1.4300000000000002 0 0 1 0.6639285714285714 -0.663c-0.37700000000000006 -0.9146428571428572 -0.8635714285714287 -2.3771428571428572 -1.0567142857142857 -3.9176428571428574Z" clip-rule="evenodd" stroke-width="1"></path><path id="Subtract_3" fill="#ffffff" d="M5.109928571428572 10.650714285714287c-0.5942857142857143 -1.4439285714285715 -1.4634285714285715 -4.256571428571428 -1.0195714285714288 -6.5789285714285715h5.328142857142858c0.44385714285714284 2.322357142857143 -0.4243571428571429 5.135000000000001 -1.0195714285714288 6.5789285714285715H5.109928571428572Z" stroke-width="1"></path><path id="Vector 684" stroke="#f97316" stroke-linecap="round" stroke-linejoin="round" d="M6.754428571428572 7.574357142857143v4.642857142857143" stroke-width="1"></path><path id="Intersect" fill="#fdba74" d="M9.418500000000002 4.072714285714286H4.090357142857143C4.3624285714285715 2.646428571428572 5.1285 1.4077142857142857 6.754428571428572 0.7827857142857143c1.625 0.6249285714285715 2.3920000000000003 1.8645714285714285 2.664071428571429 3.2899285714285718Z" stroke-width="1"></path><path id="Subtract_4" stroke="#f97316" stroke-linecap="round" stroke-linejoin="round" d="M5.109928571428572 10.650714285714287c-0.5942857142857143 -1.4439285714285715 -1.4634285714285715 -4.256571428571428 -1.0195714285714288 -6.5789285714285715h5.328142857142858c0.44385714285714284 2.322357142857143 -0.4243571428571429 5.135000000000001 -1.0195714285714288 6.5789285714285715H5.109928571428572Z" stroke-width="1"></path><path id="Intersect_2" stroke="#f97316" stroke-linecap="round" stroke-linejoin="round" d="M9.418500000000002 4.072714285714286H4.090357142857143C4.3624285714285715 2.646428571428572 5.1285 1.4077142857142857 6.754428571428572 0.7827857142857143c1.625 0.6249285714285715 2.3920000000000003 1.8645714285714285 2.664071428571429 3.2899285714285718Z" stroke-width="1"></path><path id="Vector" stroke="#f97316" stroke-linecap="round" stroke-linejoin="round" d="M5.124785714285714 10.643285714285714a1.4364999999999999 1.4364999999999999 0 0 0 -0.6787857142857143 0.6704285714285714c-0.22285714285714286 0.4615 -0.5924285714285714 0.9035 -1.105 0.9035H3.12c-0.41785714285714287 0 -0.7920714285714285 -0.2785714285714286 -0.8589285714285715 -0.6917857142857143 -0.3835 -2.3307142857142855 0.6082142857142857 -4.227785714285714 1.7930714285714286 -4.792357142857143m4.355 3.9102142857142863c0.34450000000000003 0.1727142857142857 0.5534285714285714 0.41135714285714287 0.6778571428571428 0.6704285714285714 0.22285714285714286 0.4615 0.5924285714285714 0.9035 1.105 0.9035h0.221c0.41785714285714287 0 0.7920714285714285 -0.2785714285714286 0.8598571428571429 -0.6917857142857143 0.3844285714285714 -2.343714285714286 -0.6202857142857143 -4.249142857142857 -1.8135000000000001 -4.801642857142857" stroke-width="1"></path></g></svg>